<svg width="17" height="20" viewBox="0 0 17 20" fill="none" xmlns="http://www.w3.org/2000/svg">
<path d="M0.238574 18.5816C0.100438 18.7227 0.0153512 18.9224 0.00188179 19.137C-0.0115877 19.3517 0.0476533 19.5639 0.166677 19.7273C0.305611 19.8674 0.485983 19.9371 0.668433 19.9212C0.850883 19.9054 1.0206 19.8053 1.14055 19.6427L16.6963 1.34182C16.8345 1.20071 16.9196 1.00104 16.933 0.786392C16.9465 0.571745 16.8873 0.359543 16.7682 0.196091C16.6293 0.0560627 16.4489 -0.0136325 16.2665 0.00221387C16.084 0.0180603 15.9143 0.118162 15.7944 0.280675L0.238574 18.5816Z" fill="black"/>
<path d="M0.166677 0.196091C0.0476533 0.359543 -0.0115877 0.571745 0.00188179 0.786392C0.0153512 1.00104 0.100438 1.20071 0.238574 1.34182L15.7944 19.6427C15.8468 19.7401 15.9172 19.8223 16.0003 19.8834C16.0834 19.9444 16.1771 19.9827 16.2745 19.9953C16.3719 20.008 16.4704 19.9948 16.5629 19.9566C16.6553 19.9184 16.7393 19.8563 16.8086 19.7748C16.8778 19.6933 16.9307 19.5945 16.9631 19.4857C16.9956 19.377 17.0068 19.261 16.996 19.1465C16.9853 19.0319 16.9527 18.9217 16.9009 18.8239C16.849 18.7261 16.7791 18.6433 16.6963 18.5816L1.14055 0.280675C1.0206 0.118162 0.850883 0.0180603 0.668433 0.00221387C0.485983 -0.0136325 0.305611 0.0560627 0.166677 0.196091Z" fill="black"/>
</svg>
